<mxfile host="65bd71144e">
    <diagram id="J-OxK1gn9yTpggbd9DlU" name="Page-1">
        <mxGraphModel dx="544" dy="3977" grid="1" gridSize="10" guides="1" tooltips="1" connect="1" arrows="1" fold="1" page="1" pageScale="1" pageWidth="850" pageHeight="1100" math="0" shadow="0">
            <root>
                <mxCell id="0"/>
                <mxCell id="1" parent="0"/>
                <mxCell id="11" value="&lt;span style=&quot;font-family: &amp;#34;arial unicode ms&amp;#34; , &amp;#34;lucida sans unicode&amp;#34; , sans-serif ; font-size: 64.8px ; font-weight: 400&quot;&gt;Δ&lt;/span&gt;&lt;font face=&quot;arial unicode ms, lucida sans unicode, sans-serif&quot;&gt;&lt;span style=&quot;font-size: 64.8px ; font-weight: 400&quot;&gt;ᵢ&lt;/span&gt;&lt;/font&gt;" style="whiteSpace=wrap;html=1;aspect=fixed;fillColor=#FFFFCC;strokeColor=#000000;strokeWidth=3;fontSize=50;fontStyle=1;fontColor=default;labelBackgroundColor=none;horizontal=0;rotation=90;" parent="1" vertex="1">
                    <mxGeometry x="3043" y="-626" width="140" height="140" as="geometry"/>
                </mxCell>
                <mxCell id="12" value="" style="rounded=0;whiteSpace=wrap;html=1;fontSize=50;fontColor=#000000;strokeColor=#000000;strokeWidth=6;fillColor=#000000;rotation=180;" parent="1" vertex="1">
                    <mxGeometry x="3098" y="-636" width="30" height="11" as="geometry"/>
                </mxCell>
                <mxCell id="14" value="WAG" style="ellipse;whiteSpace=wrap;html=1;aspect=fixed;sketch=0;fillColor=#d5e8d4;strokeColor=#82b366;horizontal=0;rotation=90;" parent="1" vertex="1">
                    <mxGeometry x="3050" y="-616.5" width="30" height="30" as="geometry"/>
                </mxCell>
                <mxCell id="17" value="&lt;br&gt;STREAM_1D:&lt;br style=&quot;font-size: 17px&quot;&gt;&#9;&lt;blockquote style=&quot;margin: 0px 0px 0px 40px ; border: none ; padding: 0px ; font-size: 17px&quot;&gt;&lt;font color=&quot;#0000ff&quot; style=&quot;font-size: 17px&quot;&gt;START_IDX: 0&lt;br style=&quot;font-size: 17px&quot;&gt;STATE: GENERATE&lt;br style=&quot;font-size: 17px&quot;&gt;X_MODIFY: +1&lt;br style=&quot;font-size: 17px&quot;&gt;X_COUNT: X&lt;/font&gt;&lt;/blockquote&gt;&lt;font color=&quot;#0000ff&quot; style=&quot;font-size: 17px&quot;&gt;&lt;span style=&quot;font-size: 17px&quot;&gt;&#9;&lt;/span&gt;&lt;br style=&quot;font-size: 17px&quot;&gt;&lt;/font&gt;&lt;span style=&quot;font-size: 17px&quot;&gt;&#9;&lt;/span&gt;" style="text;html=1;strokeColor=default;fillColor=none;spacing=5;spacingTop=-20;whiteSpace=wrap;overflow=hidden;rounded=0;sketch=0;fontSize=17;horizontal=0;rotation=90;" parent="1" vertex="1">
                    <mxGeometry x="2827.52" y="-740" width="130.5" height="223" as="geometry"/>
                </mxCell>
                <mxCell id="18" style="edgeStyle=none;html=1;exitX=0.5;exitY=1;exitDx=0;exitDy=0;entryX=0.5;entryY=0;entryDx=0;entryDy=0;" parent="1" source="12" target="12" edge="1">
                    <mxGeometry relative="1" as="geometry"/>
                </mxCell>
                <mxCell id="63" value="" style="rounded=0;whiteSpace=wrap;html=1;fontSize=50;fontColor=#000000;strokeColor=#000000;strokeWidth=6;fillColor=#000000;rotation=180;" parent="1" vertex="1">
                    <mxGeometry x="3098" y="-486" width="30" height="11" as="geometry"/>
                </mxCell>
                <mxCell id="64" value="RAG" style="ellipse;whiteSpace=wrap;html=1;aspect=fixed;sketch=0;fillColor=#d5e8d4;strokeColor=#82b366;horizontal=0;rotation=90;" parent="1" vertex="1">
                    <mxGeometry x="3050" y="-525.5" width="30" height="30" as="geometry"/>
                </mxCell>
                <mxCell id="68" value="&lt;br&gt;WAIT:&lt;br&gt;&lt;blockquote style=&quot;border: none ; margin: 0px 0px 0px 40px ; padding: 0px&quot;&gt;&lt;font color=&quot;#0000ff&quot;&gt;START_IDX: 0&lt;br&gt;STATE: GENERATE&lt;br&gt;X_MODIFY: +1&lt;br&gt;X_COUNT: i&lt;/font&gt;&lt;/blockquote&gt;STREAM_1D:&lt;br style=&quot;font-size: 17px&quot;&gt;&#9;&lt;blockquote style=&quot;margin: 0px 0px 0px 40px ; border: none ; padding: 0px ; font-size: 17px&quot;&gt;&lt;font color=&quot;#0000ff&quot; style=&quot;font-size: 17px&quot;&gt;START_IDX: 0&lt;br style=&quot;font-size: 17px&quot;&gt;STATE: GENERATE&lt;br style=&quot;font-size: 17px&quot;&gt;X_MODIFY: +1&lt;br style=&quot;font-size: 17px&quot;&gt;X_COUNT: X&lt;/font&gt;&lt;/blockquote&gt;&lt;font color=&quot;#0000ff&quot; style=&quot;font-size: 17px&quot;&gt;&lt;span style=&quot;font-size: 17px&quot;&gt;&#9;&lt;/span&gt;&lt;br style=&quot;font-size: 17px&quot;&gt;&lt;/font&gt;&lt;span style=&quot;font-size: 17px&quot;&gt;&#9;&lt;/span&gt;" style="text;html=1;strokeColor=default;fillColor=none;spacing=5;spacingTop=-20;whiteSpace=wrap;overflow=hidden;rounded=0;sketch=0;fontSize=17;horizontal=0;rotation=90;" parent="1" vertex="1">
                    <mxGeometry x="2780" y="-549" width="222.54" height="220" as="geometry"/>
                </mxCell>
                <mxCell id="69" style="edgeStyle=none;html=1;fontColor=#C2C474;curved=1;strokeWidth=6;exitX=0.5;exitY=0;exitDx=0;exitDy=0;" parent="1" edge="1">
                    <mxGeometry relative="1" as="geometry">
                        <mxPoint x="3114" y="-475" as="sourcePoint"/>
                        <mxPoint x="3114" y="-370" as="targetPoint"/>
                    </mxGeometry>
                </mxCell>
                <mxCell id="72" style="edgeStyle=none;html=1;fontColor=#C2C474;strokeWidth=6;rounded=1;endArrow=classic;endFill=1;entryX=0.5;entryY=1;entryDx=0;entryDy=0;" parent="1" target="12" edge="1">
                    <mxGeometry relative="1" as="geometry">
                        <mxPoint x="3113" y="-730" as="sourcePoint"/>
                        <mxPoint x="3114" y="-680" as="targetPoint"/>
                        <Array as="points"/>
                    </mxGeometry>
                </mxCell>
                <mxCell id="82" value="" style="group;rotation=-180;" vertex="1" connectable="0" parent="1">
                    <mxGeometry x="3010" y="-637" width="39" height="161" as="geometry"/>
                </mxCell>
                <mxCell id="15" value="" style="endArrow=none;dashed=1;html=1;dashPattern=1 3;strokeWidth=1;exitX=0.5;exitY=0;exitDx=0;exitDy=0;jumpSize=0;" parent="82" edge="1">
                    <mxGeometry width="50" height="50" relative="1" as="geometry">
                        <mxPoint x="39" y="126" as="sourcePoint"/>
                        <mxPoint y="161" as="targetPoint"/>
                    </mxGeometry>
                </mxCell>
                <mxCell id="16" value="" style="endArrow=none;dashed=1;html=1;dashPattern=1 3;strokeWidth=1;exitX=0.5;exitY=0;exitDx=0;exitDy=0;jumpSize=0;" parent="82" edge="1">
                    <mxGeometry width="50" height="50" relative="1" as="geometry">
                        <mxPoint x="39" y="126" as="sourcePoint"/>
                        <mxPoint y="91" as="targetPoint"/>
                    </mxGeometry>
                </mxCell>
                <mxCell id="66" value="" style="endArrow=none;dashed=1;html=1;dashPattern=1 3;strokeWidth=1;exitX=0.5;exitY=0;exitDx=0;exitDy=0;jumpSize=0;" parent="82" edge="1">
                    <mxGeometry width="50" height="50" relative="1" as="geometry">
                        <mxPoint x="39" y="35" as="sourcePoint"/>
                        <mxPoint y="70" as="targetPoint"/>
                    </mxGeometry>
                </mxCell>
                <mxCell id="67" value="" style="endArrow=none;dashed=1;html=1;dashPattern=1 3;strokeWidth=1;exitX=0.5;exitY=0;exitDx=0;exitDy=0;jumpSize=0;" parent="82" edge="1">
                    <mxGeometry width="50" height="50" relative="1" as="geometry">
                        <mxPoint x="39" y="35" as="sourcePoint"/>
                        <mxPoint as="targetPoint"/>
                        <Array as="points">
                            <mxPoint x="20" y="17"/>
                        </Array>
                    </mxGeometry>
                </mxCell>
            </root>
        </mxGraphModel>
    </diagram>
</mxfile>